<?xml version="1.0" standalone="no"?>
<!DOCTYPE svg PUBLIC "-//W3C//DTD SVG 20010904//EN"
 "http://www.w3.org/TR/2001/REC-SVG-20010904/DTD/svg10.dtd">
<svg version="1.0" xmlns="http://www.w3.org/2000/svg"
 width="2383.000000pt" height="2400.000000pt" viewBox="0 0 2383.000000 2400.000000"
 preserveAspectRatio="xMidYMid meet">

<g transform="translate(0.000000,2400.000000) scale(0.100000,-0.100000)"
fill="#000000" stroke="none">
<path d="M9080 20619 c-129 -15 -340 -60 -470 -101 -407 -130 -773 -359 -1105
-692 -859 -860 -1296 -2255 -1170 -3726 124 -1440 765 -2738 1726 -3497 131
-103 362 -252 504 -325 385 -197 740 -293 1125 -304 l175 -5 -60 27 c-260 120
-629 405 -951 735 -174 179 -256 282 -402 503 -177 267 -287 503 -338 721 -29
125 -27 422 5 570 112 529 417 1141 1301 2620 109 182 218 371 242 420 317
633 340 1208 76 1935 -50 140 -121 303 -218 510 -145 304 -220 508 -220 594 0
26 -1 26 -72 25 -40 -1 -107 -5 -148 -10z"/>
<path d="M9530 20603 c274 -198 806 -714 1045 -1013 307 -384 436 -735 475
-1296 18 -265 -12 -491 -105 -769 -112 -337 -283 -679 -755 -1510 -299 -528
-435 -788 -573 -1100 -182 -413 -271 -717 -299 -1030 -36 -399 74 -760 368
-1215 210 -325 334 -578 322 -660 -4 -28 -2 -30 26 -30 50 0 264 38 366 64
1035 272 1860 1200 2231 2510 195 690 244 1493 138 2256 -136 975 -519 1885
-1090 2592 -119 146 -423 449 -564 562 -292 232 -621 416 -945 528 -177 60
-421 112 -582 123 -82 6 -83 6 -58 -12z"/>
<path d="M15590 15015 c-841 -93 -1648 -602 -2270 -1430 -1019 -1356 -1326
-3315 -754 -4812 376 -987 1072 -1654 1925 -1847 25 -5 27 -3 32 39 9 85 157
310 372 569 289 347 413 584 472 906 24 131 24 440 -1 600 -67 435 -215 891
-548 1690 -250 599 -348 849 -437 1123 -193 588 -204 914 -51 1447 151 528
399 826 1160 1395 162 122 373 262 443 296 26 13 47 27 47 31 0 12 -260 7
-390 -7z"/>
<path d="M16168 14965 c-7 -62 -114 -273 -229 -455 -281 -442 -424 -731 -513
-1037 -121 -416 -110 -814 35 -1247 27 -82 121 -310 209 -506 593 -1333 818
-1941 901 -2435 31 -184 31 -419 0 -565 -54 -253 -170 -465 -428 -777 -195
-235 -381 -404 -676 -615 -235 -168 -551 -343 -725 -401 -40 -14 -75 -27 -78
-30 -11 -11 179 -22 371 -21 233 0 363 17 590 74 973 247 1858 1052 2410 2193
292 603 473 1287 526 1987 15 204 7 728 -15 910 -66 544 -191 986 -401 1415
-247 504 -569 889 -975 1167 -280 193 -627 331 -956 383 l-41 6 -5 -46z"/>
<path d="M7510 11009 c-397 -37 -772 -167 -1097 -381 l-122 -81 24 -31 c53
-70 105 -230 185 -576 89 -383 184 -668 297 -894 229 -456 568 -776 1043 -986
52 -23 246 -100 430 -170 1483 -565 2058 -836 2427 -1143 264 -220 412 -467
482 -803 44 -214 55 -344 55 -654 1 -257 -2 -315 -22 -448 -57 -381 -149 -730
-245 -924 -23 -49 -41 -88 -39 -88 3 0 35 24 71 53 460 372 780 929 911 1587
56 281 65 385 65 745 0 351 -8 453 -60 750 -120 685 -400 1372 -808 1985 -207
311 -389 533 -667 811 -224 225 -319 308 -541 474 -753 563 -1620 844 -2389
774z"/>
<path d="M6032 10305 c-432 -449 -688 -1046 -757 -1764 -17 -180 -20 -525 -4
-708 160 -1952 1613 -3830 3354 -4338 330 -96 585 -130 925 -122 237 5 326 15
520 58 210 47 501 166 678 275 l72 46 -24 19 c-58 46 -115 301 -151 674 -45
461 -132 723 -331 988 -308 410 -871 742 -2079 1225 -584 234 -1038 444 -1285
597 -314 195 -521 416 -730 778 -121 212 -200 426 -237 642 -24 147 -24 531 1
755 42 384 94 710 141 889 14 52 24 96 22 98 -3 2 -54 -48 -115 -112z"/>
</g>
</svg>
